# xmcd
#
# Track frame offsets:
#	150
#	9449
#	23099
#	41637
#	55343
#	67043
#	79012
#
# Disc length: 1173 seconds
#
# Revision: 1
# Processed by: cddbd v1.5.1PL2 Copyright (c) Steve Scherf et al.
# Submitted via: audiograbber 1.83.01
#
DISCID=51049307
DTITLE=Lukas - Lebensowunderbar
DYEAR=2005
DGENRE=Songwriter
TTITLE0=Leben So Wunderbar
TTITLE1=Komischerweise
TTITLE2=Bis Ich Groﬂ Bin
TTITLE3=Hast Du Mir Verziehen
TTITLE4=Welt
TTITLE5=Idiot 
TTITLE6=Prost Und Gute Reise
EXTD=
EXTT0=
EXTT1=
EXTT2=
EXTT3=
EXTT4=
EXTT5=
EXTT6=
PLAYORDER=
